<?xml version="1.0" encoding="UTF-8"?>
<svg xmlns="http://www.w3.org/2000/svg" xmlns:xlink="http://www.w3.org/1999/xlink" width="50pt" height="50pt" viewBox="0 0 50 50" version="1.1">
<g id="surface12850332">
<path style="fill-rule:nonzero;fill:rgb(0%,0%,0%);fill-opacity:1;stroke-width:1;stroke-linecap:butt;stroke-linejoin:round;stroke:rgb(80.000001%,80.000001%,80.000001%);stroke-opacity:1;stroke-miterlimit:10;" d="M 88.120289 4.348618 L 120.397298 29.53549 L 120.397298 20.635678 L 141.046482 20.635678 L 141.046482 45.646985 L 167.232725 66.080088 C 168.205087 66.836369 168.704773 68.051821 168.529208 69.280779 C 168.353642 70.496231 167.556846 71.522613 166.408919 71.995289 C 165.274497 72.454459 163.978014 72.265389 163.005652 71.509108 L 158.238379 67.795226 L 158.238379 158.238379 C 158.238379 160.142587 156.698806 161.68216 154.794597 161.68216 L 107.189384 161.68216 C 106.811243 161.73618 106.433102 161.73618 106.068467 161.68216 L 65.904522 161.68216 C 65.526382 161.73618 65.148241 161.73618 64.783605 161.68216 L 17.205402 161.68216 C 15.301193 161.68216 13.761621 160.142587 13.761621 158.238379 L 13.761621 67.795226 L 8.994347 71.509108 C 7.495289 72.684045 5.334485 72.413944 4.159548 70.914887 C 2.998116 69.415829 3.268216 67.255025 4.767274 66.080088 L 83.879711 4.348618 C 84.460427 3.902952 85.149183 3.646357 85.878454 3.632852 C 86.675251 3.592337 87.472047 3.848932 88.120289 4.348618 Z M 20.635678 62.433731 L 20.635678 154.794597 L 61.92054 154.794597 L 61.92054 89.443781 L 110.079459 89.443781 L 110.079459 154.794597 L 151.364321 154.794597 L 151.364321 62.433731 L 86 11.425251 Z M 127.284861 34.91049 L 134.158919 40.28549 L 134.158919 27.523241 L 127.284861 27.523241 Z M 68.794598 154.794597 L 103.205402 154.794597 L 103.205402 96.317839 L 68.794598 96.317839 Z M 68.794598 154.794597 " transform="matrix(0.289244,0,0,0.289244,0.125,0.125)"/>
<path style=" stroke:none;fill-rule:nonzero;fill:rgb(0%,0%,0%);fill-opacity:1;" d="M 24.964844 1.175781 C 24.753906 1.179688 24.554688 1.253906 24.386719 1.382812 L 1.503906 19.238281 C 1.070312 19.578125 0.992188 20.203125 1.328125 20.636719 C 1.667969 21.070312 2.292969 21.148438 2.726562 20.808594 L 4.105469 19.734375 L 4.105469 45.894531 C 4.105469 46.445312 4.550781 46.890625 5.101562 46.890625 L 18.863281 46.890625 C 18.96875 46.90625 19.078125 46.90625 19.1875 46.890625 L 30.804688 46.890625 C 30.910156 46.90625 31.019531 46.90625 31.128906 46.890625 L 44.898438 46.890625 C 45.449219 46.890625 45.894531 46.445312 45.894531 45.894531 L 45.894531 19.734375 L 47.273438 20.808594 C 47.554688 21.027344 47.929688 21.082031 48.257812 20.949219 C 48.589844 20.8125 48.820312 20.515625 48.871094 20.164062 C 48.921875 19.808594 48.777344 19.457031 48.496094 19.238281 L 40.921875 13.328125 L 40.921875 6.09375 L 34.949219 6.09375 L 34.949219 8.667969 L 25.613281 1.382812 C 25.425781 1.238281 25.195312 1.164062 24.964844 1.175781 Z M 25 3.429688 L 43.90625 18.183594 L 43.90625 44.898438 L 31.964844 44.898438 L 31.964844 25.996094 L 18.035156 25.996094 L 18.035156 44.898438 L 6.09375 44.898438 L 6.09375 18.183594 Z M 36.941406 8.085938 L 38.929688 8.085938 L 38.929688 11.777344 L 36.941406 10.222656 Z M 20.023438 27.984375 L 29.976562 27.984375 L 29.976562 44.898438 L 20.023438 44.898438 Z M 20.023438 27.984375 "/>
</g>
</svg>
